#!OML:ASF X:\für Bonn\!DataBase\2005_08_12_Daniel\c3d\Daniel.ASF
:FULLY-SPECIFIED
:DEGREES
1
root 10.8886 16.511 -7.95588 -731.999 -9.98791 1.49332
lowerback 26.7266 -3.58963 0.705071
upperback 8.36787 -4.48893 0.285706
thorax -5.47763 -2.21693 1.2808
lowerneck 1.37067 1.42934 -4.18866
upperneck 12.8409 1.6703 2.69785
head 3.89291 0.711812 1.68036
rclavicle -1.99779e-014 -2.38542e-015
rhumerus -31.9805 -18.9336 -74.8994
rradius 19.3931
rwrist 21.6384
rhand -15.4474 -342.057
rfingers 7.12502
rthumb 10.7332 -371.763
lclavicle -1.99779e-014 -2.38542e-015
lhumerus -386.718 24.6819 -282.573
lradius 30.0648
lwrist -25.0598
lhand -10.521 356.485
lfingers 7.12502
lthumb 15.4819 385.885
rfemur -12.8722 1.86216 30.4586
rtibia 38.8708
rfoot -19.8151 -10.3531
rtoes 13.3058
lfemur -17.3807 -0.241196 -11.4244
ltibia 80.9832
lfoot 0.803498 -2.49179
ltoes 2.9299
2
root 10.9254 16.5116 -7.87581 -732.08 -11.6102 1.63322
lowerback 27.0992 -3.49082 0.642423
upperback 8.47673 -4.40348 0.0496661
thorax -5.55298 -2.17747 1.05101
lowerneck 1.52465 1.70215 -3.77419
upperneck 12.8008 2.05615 2.31507
head 3.8375 0.903991 1.48397
rclavicle 4.82053e-014 -1.70955e-014
rhumerus -31.5407 -16.8466 -76.3425
rradius 20.6576
rwrist 19.7659
rhand -15.3956 -341.955
rfingers 7.12502
rthumb 10.7832 -371.658
lclavicle 4.82053e-014 -1.70955e-014
lhumerus -386.891 24.3873 -282.632
lradius 30.3961
lwrist -25.057
lhand -10.4519 356.657
lfingers 7.12502
lthumb 15.5484 386.051
rfemur -12.5819 2.5089 30.4601
rtibia 39.077
rfoot -19.6293 -9.48386
rtoes 13.092
lfemur -18.2227 -0.509665 -11.7139
ltibia 80.602
lfoot -0.501351 -2.09236
ltoes 2.95693
3
root 10.9637 16.5128 -7.79541 -732.132 -13.2719 1.79329
lowerback 27.4319 -3.39561 0.616974
upperback 8.59526 -4.31939 -0.23634
thorax -5.60363 -2.13867 0.741798
lowerneck 1.58615 1.97615 -3.37715
upperneck 12.7813 2.4429 1.98236
head 3.81093 1.09804 1.3105
rclavicle 2.37548e-014 -7.7526e-015
rhumerus -31.2511 -14.7913 -77.7665
rradius 22.0951
rwrist 18.0336
rhand -15.3806 -341.881
rfingers 7.12502
rthumb 10.7976 -371.584
lclavicle 2.37548e-014 -7.7526e-015
lhumerus -387.011 24.0243 -282.745
lradius 30.7507
lwrist -24.8541
lhand -10.454 356.778
lfingers 7.12502
lthumb 15.5465 386.173
rfemur -12.3666 3.13222 30.4239
rtibia 39.3296
rfoot -19.4663 -8.52624
rtoes 12.7887
lfemur -19.0678 -0.74103 -12.0344
ltibia 80.1158
lfoot -1.94332 -1.62829
ltoes 2.69024
4
root 11.0055 16.5091 -7.7195 -732.209 -14.9459 1.9732
lowerback 27.8801 -3.27528 0.553088
upperback 8.67063 -4.2099 -0.476752
thorax -5.74942 -2.08726 0.502583
lowerneck 1.66353 2.23826 -3.14615
upperneck 12.7769 2.81582 1.65725
head 3.78933 1.27772 1.16919
rclavicle 5.63555e-014 -2.0276e-014
rhumerus -31.0941 -12.6579 -79.0026
rradius 23.6118
rwrist 16.376
rhand -15.4579 -341.819
rfingers 7.12502
rthumb 10.7231 -371.526
lclavicle 5.63555e-014 -2.0276e-014
lhumerus -387.184 23.8103 -282.811
lradius 31.1308
lwrist -24.578
lhand -10.4334 356.806
lfingers 7.12502
lthumb 15.5663 386.199
rfemur -12.211 3.72821 30.3551
rtibia 39.6567
rfoot -19.294 -7.54922
rtoes 12.5542
lfemur -19.8864 -0.964199 -12.3609
ltibia 79.5325
lfoot -3.39899 -1.21457
ltoes 1.70732
5
root 11.0501 16.4995 -7.65222 -732.259 -16.6317 2.12565
lowerback 28.3959 -3.13089 0.499269
upperback 8.73335 -4.06555 -0.678137
thorax -5.93694 -2.01926 0.290618
lowerneck 1.7093 2.48574 -2.99164
upperneck 12.7477 3.17161 1.33836
head 3.76718 1.44627 1.04358
rclavicle 2.16675e-014 9.74045e-015
rhumerus -31.0017 -10.5549 -80.1102
rradius 25.2074
rwrist 14.7448
rhand -15.552 -341.82
rfingers 7.12502
rthumb 10.6323 -371.531
lclavicle 2.16675e-014 9.74045e-015
lhumerus -387.303 23.5994 -282.812
lradius 31.5291
lwrist -24.1975
lhand -10.4145 356.781
lfingers 7.12502
lthumb 15.5844 386.173
rfemur -12.18 4.35104 30.307
rtibia 40.0642
rfoot -19.149 -6.55009
rtoes 12.2747
lfemur -20.7677 -1.18939 -12.6308
ltibia 78.8816
lfoot -4.76938 -0.684581
ltoes 0.645872
6
root 11.0948 16.4869 -7.58268 -732.321 -18.3096 2.26252
lowerback 28.8886 -2.95644 0.417224
upperback 8.8393 -3.88823 -0.812237
thorax -6.05567 -1.93749 0.152268
lowerneck 1.63114 2.71553 -3.05418
upperneck 12.7273 3.50349 1.11033
head 3.76974 1.59697 0.988155
rclavicle 1.20016e-014 -2.34566e-014
rhumerus -30.909 -8.51145 -81.0169
rradius 26.8248
rwrist 13.2725
rhand -15.6899 -341.734
rfingers 7.12502
rthumb 10.4993 -371.452
lclavicle 1.20016e-014 -2.34566e-014
lhumerus -387.322 23.4828 -282.688
lradius 31.904
lwrist -23.8017
lhand -10.4029 356.7
lfingers 7.12502
lthumb 15.5957 386.092
rfemur -12.1787 4.92686 30.2664
rtibia 40.5449
rfoot -19.0465 -5.53516
rtoes 11.987
lfemur -21.562 -1.42427 -12.8446
ltibia 78.1138
lfoot -6.04615 0.000322779
ltoes 0.0847666
7
root 11.1386 16.4723 -7.51078 -732.39 -19.9466 2.40201
lowerback 29.3829 -2.7927 0.362902
upperback 8.935 -3.72045 -0.962868
thorax -6.18751 -1.86028 -0.0192497
lowerneck 1.57004 2.93369 -3.12115
upperneck 12.6863 3.82121 0.864444
head 3.76315 1.74006 0.926771
rclavicle -4.21175e-014 6.36111e-015
rhumerus -30.8414 -6.77492 -81.8049
rradius 28.3476
rwrist 12.0838
rhand -15.8981 -341.624
rfingers 7.12502
rthumb 10.2984 -371.352
lclavicle -4.21175e-014 6.36111e-015
lhumerus -387.337 23.2998 -282.585
lradius 32.2877
lwrist -23.3038
lhand -10.3453 356.607
lfingers 7.12502
lthumb 15.6511 385.994
rfemur -12.2041 5.4813 30.2108
rtibia 41.0738
rfoot -18.9848 -4.528
rtoes 11.7617
lfemur -22.2947 -1.74359 -13.0283
ltibia 77.241
lfoot -7.19102 0.660592
ltoes 0.15643
8
root 11.1812 16.4564 -7.43542 -732.445 -21.5362 2.5498
lowerback 29.8104 -2.6367 0.321381
upperback 9.04137 -3.56201 -1.12365
thorax -6.27524 -1.78821 -0.211949
lowerneck 1.47909 3.13796 -3.21325
upperneck 12.6694 4.11951 0.644629
head 3.77102 1.87306 0.879123
rclavicle 3.55735e-014 8.30931e-015
rhumerus -30.7824 -5.25462 -82.4868
rradius 29.8155
rwrist 11.1577
rhand -16.0467 -341.479
rfingers 7.12502
rthumb 10.1551 -371.214
lclavicle 3.55735e-014 8.30931e-015
lhumerus -387.332 23.1093 -282.491
lradius 32.6648
lwrist -22.778
lhand -10.3322 356.515
lfingers 7.12502
lthumb 15.6638 385.901
rfemur -12.2672 5.98144 30.1299
rtibia 41.627
rfoot -18.9653 -3.51363
rtoes 11.451
lfemur -22.9782 -2.11275 -13.1857
ltibia 76.2594
lfoot -8.25114 1.25568
ltoes 0.522202
9
root 11.2227 16.4407 -7.35953 -732.518 -23.1466 2.68897
lowerback 30.2791 -2.47557 0.296623
upperback 9.13253 -3.39464 -1.28665
thorax -6.39808 -1.712 -0.420148
lowerneck 1.40349 3.34493 -3.34166
upperneck 12.6346 4.41974 0.442873
head 3.76895 2.00629 0.843227
rclavicle 3.65267e-015 -1.55549e-014
rhumerus -30.7157 -3.85667 -83.0881
rradius 31.1458
rwrist 10.3911
rhand -16.3119 -341.296
rfingers 7.12502
rthumb 9.89929 -371.043
lclavicle 3.65267e-015 -1.55549e-014
lhumerus -387.35 23.0127 -282.433
lradius 33.0377
lwrist -22.3043
lhand -10.2891 356.396
lfingers 7.12502
lthumb 15.7052 385.778
rfemur -12.323 6.4152 30.0431
rtibia 42.1651
rfoot -18.9134 -2.41285
rtoes 11.229
lfemur -23.5962 -2.41627 -13.2906
ltibia 75.1841
lfoot -9.24908 1.78943
ltoes 0.431073
10
root 11.2651 16.4259 -7.28274 -732.57 -24.7451 2.80024
lowerback 30.7339 -2.32219 0.323946
upperback 9.22676 -3.22435 -1.45531
thorax -6.51145 -1.63479 -0.668938
lowerneck 1.27947 3.52928 -3.44427
upperneck 12.6317 4.69379 0.222711
head 3.78945 2.1264 0.798125
rclavicle 2.13694e-015 3.97569e-015
rhumerus -30.5797 -2.71917 -83.588
rradius 32.3033
rwrist 9.90924
rhand -16.528 -341.043
rfingers 7.12502
rthumb 9.69077 -370.8
lclavicle 2.13694e-015 3.97569e-015
lhumerus -387.292 22.8845 -282.399
lradius 33.352
lwrist -21.7922
lhand -10.2954 356.278
lfingers 7.12502
lthumb 15.6992 385.661
rfemur -12.3943 6.75341 29.9606
rtibia 42.6608
rfoot -18.8259 -1.28865
rtoes 10.8411
lfemur -24.1994 -2.7104 -13.3516
ltibia 74.0347
lfoot -10.1145 2.29607
ltoes 0.400902
